<svg version="1.2" xmlns="http://www.w3.org/2000/svg" viewBox="0 0 112 132" width="112" height="132"><style>.a{fill:#fff}</style><path fill-rule="evenodd" class="a" d="m111.5 112.4c-0.4 0.8-1.3 1.4-2.2 1.4h-20.8l-9.5 16.9c-0.4 0.8-1.3 1.3-2.3 1.3-0.9 0-1.6-0.5-2.2-1.3l-18.6-32.2-18.6 31.8c-0.4 0.8-1.3 1.3-2.2 1.3-0.9 0-1.7-0.5-2.2-1.3l-9.5-16.5h-20.8c-1 0-1.7-0.6-2.3-1.4-0.3-0.7-0.5-1.8 0-2.6l19.4-34.4c-2.2-0.9-3.6-3.1-3.3-5.4l1.6-12.2-8.2-8.8c-1.8-2.2-1.6-5.4 0.2-7.2l8.2-8.6-1.5-12c-0.2-2.9 1.6-5.3 4.3-5.9l11.9-2 5.8-10.6c0.7-1.2 1.7-2.1 3-2.5 1.3-0.4 2.8-0.2 3.9 0.4l10.7 5.2 10.9-5.1h0.2c2.6-1 5.4 0 6.6 2.5l5.7 10.6 11.9 2.3c2.6 0.5 4.4 3.2 4.1 5.8l-1.6 12.1 8.2 8.8c1.8 2.3 1.6 5.4-0.2 7.2l-8.2 8.6 1.5 12c0.1 2.4-1.1 4.4-3 5.4l19.2 33.8c0.5 0.8 0.5 1.9-0.1 2.6zm-58.7-19.2l-2.6-4.6-5.3 2.5h-0.2c-2.6 1-5.4 0-6.6-2.5l-5.7-10.6-7.5-1.3-17.9 31.8h17.9c1 0 1.7 0.6 2.3 1.3l8 14zm0.8-11.9c1.4-0.8 3.3-0.8 4.7 0l10.7 5.2 5.8-10.5c0.8-1.5 2.2-2.4 3.7-2.6l11.7-2-1.5-12c-0.2-1.5 0.3-3.1 1.5-4.3l8.3-8.6-8.2-8.8c-1-1.1-1.6-2.8-1.3-4.3l1.7-12-11.8-2.4c-1.5-0.1-2.8-1.2-3.6-2.5l-5.7-10.8c0 0 0 0-0.1 0l-10.8 5c-1.5 0.8-3.3 0.8-4.7 0l-10.7-5.2-5.8 10.5c-0.8 1.5-2.2 2.4-3.7 2.6l-11.8 2.1c-0.2 0.1-0.2 0.3-0.2 0.3l1.5 11.8c0.2 1.6-0.3 3.2-1.5 4.3l-8.2 8.6 8.1 8.9c1.1 1 1.6 2.7 1.3 4.3l-1.7 12 12 2.2c1.6 0.1 2.9 1.2 3.6 2.5l5.8 10.8c0 0 0 0 0.1 0zm51.4 27.3l-17.8-31.5-7.8 1.5-5.9 10.5c-0.9 1.7-2.7 2.6-4.5 2.6-0.8 0-1.6-0.1-2.4-0.5l-10.7-5.2-0.9 0.4 2.9 5.1c0.3 0.2 0.4 0.5 0.5 0.9l18.4 31.8 8-14.3c0.4-0.8 1.3-1.3 2.3-1.3zm-49.1-36.5c-14.3 0-26-11.8-26-26.1 0-14.4 11.7-26.1 26-26.1 14.3 0 26 11.7 26 26.1 0 14.3-11.7 26.1-26 26.1zm20.8-26.1c0-11.5-9.4-20.9-20.8-20.9-11.5 0-20.8 9.4-20.8 20.9 0 11.5 9.3 20.8 20.8 20.8 11.4 0 20.8-9.3 20.8-20.8z"/></svg>